<?xml version="1.0" encoding="UTF-8" standalone="no"?>
<svg id="Flag of Poland" xmlns:rdf="http://www.w3.org/1999/02/22-rdf-syntax-ns#" xmlns="http://www.w3.org/2000/svg" height="751.25" viewBox="0 0 10.087659 9.390686" width="807.01" version="1.1" xmlns:cc="http://creativecommons.org/ns#" xmlns:dc="http://purl.org/dc/elements/1.1/">
 <metadata id="metadata11">
  <rdf:RDF>
   <cc:Work rdf:about="">
    <dc:format>image/svg+xml</dc:format>
    <dc:type rdf:resource="http://purl.org/dc/dcmitype/StillImage"/>
   </cc:Work>
  </rdf:RDF>
 </metadata>
 <path id="path3763" stroke-linejoin="round" d="m8.7852 9.3651c-0.013547-0.0078-0.035541-0.024235-0.048875-0.036527-0.026703-0.024614-0.030707-0.026048-0.040341-0.014439-0.00475 0.00573-0.012224 0.007-0.027072 0.00463-0.01214-0.00194-0.027153-0.0005262-0.036795 0.00347-0.01434 0.00594-0.017988 0.00549-0.030515-0.00377-0.00783-0.00579-0.017804-0.017684-0.022173-0.02644-0.00437-0.00876-0.016912-0.023714-0.027871-0.033241-0.015917-0.013835-0.022845-0.016633-0.034428-0.013903-0.030335 0.00715-0.091517 0.00454-0.10131-0.00432-0.00602-0.00545-0.019059-0.00848-0.036521-0.00848h-0.027154l-0.021793-0.036683c-0.0216-0.0363-0.022-0.0367-0.0413-0.034-0.01072 0.00147-0.024735 0.00521-0.031144 0.0083-0.00827 0.004-0.01595 0.00395-0.026483-0.000175-0.00816-0.00319-0.025182-0.00845-0.037832-0.011682-0.020818-0.00532-0.022691-0.00712-0.019734-0.018895 0.00598-0.023811-0.014178-0.044627-0.0333-0.034393-0.015061 0.00806-0.053538-0.00492-0.057141-0.019272-0.00216-0.00863-0.0069-0.012098-0.016484-0.012098-0.019033 0-0.076739-0.02121-0.085111-0.031283-0.00473-0.0057-0.00601-0.016318-0.00391-0.03266 0.00171-0.01332 0.00132-0.026002-0.0008612-0.028181-0.00218-0.00218-0.00423-0.00677-0.00455-0.010209-0.0003225-0.00344-0.0009475-0.00993-0.00139-0.014426-0.000445-0.0045-0.010116-0.018163-0.021496-0.030366-0.01159-0.012428-0.026261-0.036772-0.033348-0.055333-0.0119-0.0312-0.0139-0.0334-0.0336-0.0374-0.01152-0.00235-0.027422-0.00561-0.035337-0.00725-0.00792-0.00164-0.015853-0.00758-0.01764-0.013211-0.00187-0.00588-0.00992-0.01157-0.018943-0.013374-0.010065-0.00201-0.01851-0.00858-0.023544-0.018321-0.00466-0.00901-0.012144-0.015182-0.018414-0.015182-0.017205 0-0.052186 0.025143-0.055973 0.040231-0.00255 0.010153-0.00463 0.011881-0.00796 0.00662-0.00248-0.00392-0.00455-0.012325-0.0046-0.018681-0.00005-0.0067-0.00668-0.016254-0.015795-0.022746-0.00864-0.00615-0.01879-0.017638-0.02255-0.02552-0.00589-0.012343-0.010811-0.014698-0.035489-0.016979-0.026838-0.00248-0.029393-0.00397-0.040342-0.023592-0.015919-0.028523-0.027681-0.032908-0.053339-0.019882-0.01872 0.0095-0.021692 0.00972-0.032624 0.00241-0.010831-0.00724-0.012983-0.00718-0.021604 0.0006187-0.00527 0.00477-0.012231 0.00866-0.015478 0.00866-0.00325 0-0.00955 0.0052-0.013996 0.011553-0.00785 0.011207-0.00841 0.011265-0.018729 0.00193-0.010323-0.00934-0.010923-0.00927-0.020318 0.00233-0.00601 0.00742-0.016831 0.012597-0.028551 0.013648-0.015247 0.00137-0.021768-0.00133-0.033954-0.014049-0.012011-0.012537-0.018047-0.015091-0.02964-0.012545-0.011096 0.00244-0.018051-0.0000375-0.029249-0.010425-0.010438-0.00968-0.020535-0.013623-0.034871-0.013623-0.011099 0-0.027061-0.00356-0.035471-0.00791-0.017582-0.00909-0.029687-0.00624-0.033374 0.00786-0.00141 0.0054-0.012371 0.014813-0.024356 0.020928-0.017434 0.00889-0.021808 0.014008-0.021872 0.025575-0.00005 0.00795-0.00227 0.017923-0.00495 0.022158-0.00422 0.00668-0.00673 0.0067-0.018904 0.00019-0.00772-0.00413-0.018879-0.014316-0.024801-0.022634-0.012251-0.017205-0.033838-0.027269-0.046189-0.021533-0.0046 0.00213-0.021402 0.0064-0.037347 0.00949-0.022542 0.00436-0.030448 0.00853-0.035541 0.018774-0.00745 0.014987-0.00142 0.027985 0.025533 0.054991 0.00834 0.00836 0.015164 0.01704 0.015164 0.019296 0 0.00634-0.011645 0.00929-0.029131 0.0074-0.012432-0.00135-0.020212 0.0025-0.035752 0.017671-0.010924 0.010667-0.019862 0.02256-0.019862 0.02643s-0.00343 0.00835-0.00762 0.00996-0.00903 0.00928-0.010761 0.017048c-0.00228 0.010245-0.00921 0.016689-0.025259 0.023469-0.021135 0.00893-0.022529 0.00893-0.031343 0-0.00507-0.00514-0.012207-0.021263-0.015853-0.035829-0.00943-0.037691-0.012474-0.040652-0.032723-0.031883-0.00924 0.004-0.020376 0.00863-0.024745 0.010277-0.00437 0.00165-0.011977 0.0059-0.016904 0.00943-0.0073 0.00524-0.010987 0.0046-0.019898-0.00347-0.00602-0.00544-0.010327-0.013666-0.00958-0.018268 0.0007475-0.0046-0.00404-0.010756-0.01063-0.013675-0.00696-0.00308-0.010818-0.00836-0.00919-0.012598 0.00207-0.00539-0.0007775-0.00661-0.010903-0.00467-0.010907 0.00209-0.014704-0.000025-0.018623-0.010329-0.00271-0.00712-0.00347-0.018741-0.00169-0.025822 0.00242-0.00964 0.00109-0.012874-0.00529-0.012874-0.00469 0-0.00852-0.00365-0.00852-0.00811s-0.00358-0.00948-0.00795-0.01116-0.00798-0.00816-0.00803-0.0144-0.00217-0.014644-0.00472-0.01867c-0.00364-0.00575-0.00659-0.00433-0.01377 0.00662-0.00502 0.00767-0.011471 0.01394-0.014328 0.01394-0.00286 0-0.012115 0.00493-0.020574 0.010951-0.016164 0.011509-0.032039 0.01023-0.045974-0.00371-0.011928-0.011929-0.016613-0.00861-0.029738 0.021068-0.00689 0.015573-0.016524 0.02985-0.021416 0.031727-0.013563 0.0052-0.052736-0.014002-0.095449-0.0468-0.011618-0.00892-0.069222-0.011411-0.063876-0.00276 0.00414 0.00671-0.018323 0.03719-0.027409 0.03719-0.00382 0-0.00695-0.00358-0.00695-0.00794 0-0.00437-0.00298-0.00814-0.00662-0.00838-0.00364-0.0002362-0.013771-0.00148-0.022511-0.00275-0.045482-0.00665-0.051103-0.00236-0.046612 0.035554 0.00163 0.013753 0.00157 0.030568-0.0001325 0.037366-0.00303 0.01212-0.00409 0.012309-0.05414 0.00971-0.031201-0.00162-0.052401-0.0005887-0.054531 0.00265-0.00192 0.00291-0.00793 0.00773-0.013355 0.010715-0.00543 0.00298-0.015477 0.0159-0.02233 0.028711-0.00978 0.018287-0.013208 0.021342-0.015942 0.014215-0.00325-0.00846-0.00414-0.00848-0.013196-0.0002887-0.00534 0.00483-0.014853 0.024601-0.021136 0.043926-0.00628 0.019325-0.015161 0.041078-0.019729 0.048339-0.00457 0.00726-0.00851 0.025137-0.00875 0.039725-0.0002437 0.014588-0.00339 0.031729-0.00698 0.038092-0.00359 0.00636-0.00653 0.020116-0.00653 0.030563v0.018993l-0.027807-0.015834c-0.02004-0.011411-0.029131-0.020318-0.032546-0.031887-0.00261-0.00883-0.00771-0.016053-0.011351-0.016053-0.00364 0-0.0078-0.00311-0.00926-0.0069-0.00146-0.0038-0.017565-0.00968-0.035794-0.013069-0.039008-0.00725-0.055443-0.0007825-0.0709 0.02792-0.010064 0.018688-0.026171 0.029735-0.042836 0.02938-0.02775-0.0005912-0.06653-0.00518-0.071912-0.0085-0.00819-0.00506-0.00264-0.043051 0.008-0.054809 0.00462-0.0051 0.00839-0.013085 0.00839-0.017741 0-0.00466 0.00855-0.015512 0.018994-0.024123 0.018779-0.015479 0.0189-0.015839 0.010705-0.031687-0.00456-0.00882-0.011118-0.016973-0.014575-0.018125-0.00481-0.0016-0.00485-0.00622-0.0001675-0.019645 0.00336-0.00965 0.0048-0.022788 0.0032-0.029191-0.00161-0.0064-0.00378-0.024593-0.00482-0.040421-0.00473-0.071734-0.0089-0.090312-0.021561-0.096081-0.019147-0.00872-0.047377-0.001-0.054645 0.01495-0.00591 0.012982-0.00687 0.013261-0.018765 0.00547-0.00689-0.00452-0.024903-0.00985-0.040023-0.011858-0.02492-0.00331-0.027155-0.00469-0.023904-0.014825 0.00414-0.012896 0.00406-0.019589-0.0005487-0.046931-0.00354-0.021016-0.0072-0.023223-0.023773-0.014352-0.00863 0.00462-0.011121 0.00334-0.015411-0.00794-0.00281-0.0074-0.0087-0.013454-0.013083-0.013454-0.00438 0-0.012477-0.00894-0.017987-0.019862-0.012032-0.023853-0.037866-0.10495-0.037866-0.11887 0-0.020231-0.015263-0.046049-0.03249-0.054957-0.00959-0.00496-0.021867-0.014651-0.027285-0.021538-0.00639-0.00813-0.015354-0.012523-0.025526-0.012523-0.022776 0-0.052934 0.014096-0.056106 0.026225-0.00151 0.00576-0.010826 0.015247-0.020709 0.021079-0.012297 0.00726-0.017969 0.014519-0.017969 0.02301 0 0.024873-0.010342 0.030928-0.055163 0.032298l-0.041548 0.00127-0.020408 0.023536c-0.011224 0.012945-0.020077 0.027111-0.019673 0.031481 0.0004037 0.00437-0.00202 0.014655-0.00539 0.022856-0.00337 0.0082-0.00612 0.023886-0.00612 0.034857 0 0.015751-0.00273 0.021408-0.012987 0.026897-0.012835 0.00687-0.019683 0.024662-0.017347 0.045075 0.0009513 0.00831-0.00323 0.011469-0.019984 0.015086-0.011653 0.00252-0.025412 0.00678-0.030577 0.00947-0.0095 0.00496-0.029375-0.00199-0.036369-0.012717-0.002-0.00306-0.013416-0.00369-0.027793-0.00153-0.017411 0.00261-0.026156 0.00698-0.03051 0.015255-0.00849 0.016135-0.011724 0.017494-0.036055 0.015174-0.023191-0.00221-0.027779-0.012092-0.015068-0.032445 0.0052-0.00833 0.00424-0.014826-0.00526-0.03568-0.012237-0.026848-0.016181-0.063486-0.00942-0.087465 0.00322-0.011426 0.00137-0.016964-0.00923-0.027563-0.012342-0.012342-0.016601-0.013212-0.061309-0.012516-0.026425 0.0004113-0.049757-0.0009637-0.051849-0.00306-0.00209-0.00209 0.00036-0.010851 0.00545-0.019465 0.00902-0.015264 0.00892-0.016235-0.00389-0.038237-0.00851-0.014629-0.015209-0.037874-0.01902-0.06604-0.00771-0.05694-0.018879-0.11513-0.023564-0.12271-0.00205-0.00332-0.010776-0.00968-0.019382-0.014134-0.012931-0.00669-0.019281-0.007-0.036572-0.00182-0.02319 0.00695-0.037151 0.000815-0.037151-0.016321 0-0.016024-0.016913-0.025427-0.04671-0.025969-0.015495-0.0002813-0.030391-0.00188-0.033104-0.00356-0.00271-0.00168-0.00493-0.012617-0.00493-0.024312 0-0.024864-0.020117-0.08768-0.041835-0.13063l-0.0155-0.0303 0.0164-0.0228c0.018699-0.026038 0.015393-0.040949-0.009-0.040582-0.010096 0.0001525-0.013226-0.00202-0.011443-0.00794 0.014659-0.048696 0.012111-0.079658-0.00655-0.079658-0.00532 0-0.012127-0.00246-0.015135-0.00547-0.00874-0.00874-0.02237-0.000175-0.024147 0.015187-0.0026 0.022492-0.027958 0.021816-0.070321-0.00188-0.018976-0.010612-0.035855-0.021484-0.037509-0.024161-0.00165-0.00268-0.013138-0.00487-0.025518-0.00487s-0.027137-0.0035-0.032791-0.00778c-0.022239-0.016821-0.055876-0.00412-0.03994 0.015086 0.00447 0.00539 0.00415 0.00867-0.00131 0.013201-0.011739 0.00974-0.033623-0.011143-0.037842-0.036117-0.00441-0.026088-0.013497-0.033776-0.041518-0.035116-0.021549-0.00103-0.022162-0.00158-0.025033-0.022378-0.00369-0.02674-0.012973-0.038176-0.030809-0.03796-0.015354 0.0001863-0.032455 0.010871-0.032455 0.020278 0 0.00895-0.010435 0.00732-0.014091-0.00221-0.00179-0.00467-0.0066-0.00693-0.011098-0.00521-0.012262 0.00471-0.02248-0.00724-0.02248-0.02627 0-0.00948-0.00358-0.020208-0.00794-0.023835-0.00437-0.00363-0.00795-0.011069-0.00795-0.016538 0-0.00547-0.00303-0.00994-0.00674-0.00994s-0.015748-0.00743-0.026759-0.016503c-0.019369-0.015966-0.020654-0.016263-0.039446-0.00911-0.015949 0.00607-0.020279 0.011007-0.024201 0.027589-0.00615 0.026003 0.00437 0.039773 0.022828 0.029892 0.013779-0.00737 0.014687-0.00678 0.016125 0.010505 0.0018 0.021593 0.0006387 0.022413-0.015454 0.010954-0.00846-0.00602-0.019206-0.010954-0.023878-0.010954-0.00467 0-0.025225 0.014048-0.045674 0.031217-0.041323 0.034697-0.06364 0.041473-0.094884 0.02881-0.026341-0.010676-0.073608-0.063259-0.077641-0.086372-0.00179-0.010272-0.011334-0.035085-0.021204-0.05514s-0.017946-0.039415-0.017946-0.043022c0-0.011323-0.049748-0.032657-0.06601-0.028308-0.012002 0.00321-0.015674 0.00153-0.022667-0.010395-0.00459-0.00782-0.018096-0.021478-0.030014-0.030341-0.025911-0.01927-0.027943-0.030923-0.00578-0.033152 0.00874-0.0008787 0.024232-0.00553 0.034428-0.010342 0.010196-0.00481 0.02286-0.00809 0.028142-0.00728 0.015541 0.00237 0.035417-0.013843 0.035417-0.028883 0-0.00815 0.00222-0.012062 0.00564-0.00995 0.0031 0.00192 0.013828 0.00195 0.023835 0.000075l0.018194-0.00341v-0.033579c0-0.029973-0.00142-0.034511-0.013241-0.042255-0.016204-0.010617-0.016847-0.025698-0.00225-0.052924 0.012865-0.024004 0.010214-0.04555-0.00561-0.04555-0.00567 0-0.012568-0.00417-0.015334-0.00927-0.00682-0.01257-0.040506-0.029903-0.050595-0.026032-0.00624 0.00239-0.00751 0.00848-0.0054 0.025837 0.00239 0.019635 0.0007437 0.024854-0.012151 0.038595-0.0082 0.00874-0.023952 0.019087-0.035002 0.022994-0.017691 0.00626-0.020841 0.00608-0.026376-0.00149-0.0053-0.00725-0.00904-0.00764-0.023918-0.00245-0.00999 0.00348-0.029001 0.0048-0.043871 0.00304-0.014431-0.00171-0.03899-0.0005475-0.054575 0.00258-0.022429 0.0045-0.029747 0.0086-0.035102 0.019639-0.00613 0.012639-0.00696 0.012954-0.00887 0.00336-0.00351-0.017612-0.017671-0.045504-0.024426-0.048096-0.00349-0.00134-0.018096 0.0011-0.032456 0.00542s-0.026752 0.00722-0.027537 0.00643c-0.000785-0.000785 0.00105-0.010394 0.00407-0.021354 0.00405-0.014653 0.00384-0.021932-0.0007925-0.027509-0.00502-0.00605-0.00456-0.00758 0.0023-0.00758 0.012427 0 0.01055-0.00907-0.00383-0.018488-0.011121-0.00729-0.014432-0.0073-0.03161-0.000125-0.010553 0.00441-0.024627 0.00792-0.031275 0.00781-0.016245-0.0002763-0.10046-0.070455-0.087532-0.072945 0.010994-0.00212 0.010975-0.00198 0.00279-0.01995-0.00624-0.013699-0.00751-0.01405-0.039725-0.011042-0.019939 0.00186-0.033278 0.00106-0.033278-0.00199 0-0.0028-0.00516-0.0051-0.011476-0.0051-0.00631 0-0.00997-0.00151-0.00813-0.00334 0.00769-0.00769-0.00791-0.023832-0.02182-0.022574-0.018878 0.00171-0.049345-0.0054-0.059208-0.013819-0.00437-0.00373-0.018671-0.00844-0.03178-0.010469-0.013109-0.00203-0.037711-0.011823-0.05467-0.021763-0.032538-0.019071-0.056526-0.022932-0.066655-0.010728-0.00335 0.00404-0.011817 0.018645-0.018809 0.032457-0.014679 0.028994-0.012887 0.03446 0.01876 0.057208 0.016636 0.011959 0.020744 0.018243 0.02077 0.031777 0.0000125 0.00928 0.00359 0.023697 0.00794 0.032042 0.00435 0.00834 0.00799 0.021453 0.00809 0.029131 0.0002363 0.018744 0.014668 0.03488 0.038115 0.042619 0.041474 0.013688 0.057546 0.041119 0.040286 0.068757-0.00494 0.00791-0.00405 0.014162 0.00448 0.031396 0.010247 0.020712 0.00879 0.037748-0.00263 0.030692-0.00303-0.00187-0.00824-0.01171-0.011596-0.021865-0.0039-0.011825-0.00946-0.018464-0.015455-0.018464-0.011729 0-0.029119 0.018597-0.024451 0.026149 0.00228 0.00369-0.00574 0.00563-0.023316 0.00563-0.027709 0-0.047982 0.012176-0.047982 0.028819 0 0.013-0.0097 0.014443-0.021021 0.00313-0.00901-0.00901-0.012519-0.00975-0.021059-0.00442-0.00564 0.00352-0.013176 0.011874-0.016757 0.018566-0.00358 0.00669-0.00951 0.012167-0.013181 0.012167-0.00367 0-0.011603 0.013186-0.017632 0.029301-0.014917 0.03987-0.02598 0.055442-0.039401 0.05546-0.00839 0.0000106-0.015416 0.00788-0.027198 0.030456-0.01714 0.032835-0.025347 0.035748-0.055614 0.019738-0.00728-0.00385-0.0175-0.00834-0.022704-0.00998-0.0052-0.00163-0.013547-0.01023-0.018538-0.019102-0.00499-0.00887-0.014581-0.017549-0.021309-0.019284-0.00827-0.00213-0.011219-0.0058-0.0091-0.011308 0.00183-0.00476-0.00238-0.013903-0.010113-0.021975-0.011599-0.012106-0.013551-0.019722-0.015734-0.061373l-0.00249-0.047551-0.021507-0.018683c-0.011829-0.010275-0.021507-0.021398-0.021507-0.024717 0-0.00332-0.00556-0.010404-0.012358-0.015745-0.0068-0.00534-0.026016-0.030566-0.042709-0.056056-0.03013-0.046009-0.030512-0.046346-0.052525-0.046411-0.01946-0.0000625-0.023633-0.00232-0.034092-0.018464-0.00661-0.010201-0.011917-0.026691-0.011917-0.037011 0-0.0268-0.015-0.039799-0.045928-0.039799-0.015449 0-0.028329 0.00325-0.034293 0.00864-0.00892 0.00808-0.00987 0.0078-0.014431-0.00419-0.00268-0.00706-0.00847-0.015813-0.012856-0.019455-0.00439-0.00364-0.00945-0.012481-0.011246-0.019645-0.00249-0.00993-0.00677-0.013024-0.017994-0.013024-0.011869 0-0.015958-0.00341-0.021085-0.01759-0.00851-0.023524-0.00862-0.02328 0.00947-0.020625 0.011749 0.00172 0.016773-0.0001363 0.019491-0.00722 0.00215-0.0056 0.00108-0.010403-0.00259-0.011627-0.00857-0.00286-0.0079-0.011794 0.000885-0.011794 0.00392 0 0.012862-0.005 0.019862-0.011118 0.007-0.00612 0.024049-0.016881 0.037887-0.023924 0.013837-0.00704 0.025159-0.01509 0.025159-0.017881 0-0.00281 0.00707-0.00366 0.015861-0.0019 0.013953 0.00279 0.018726 0.0000625 0.039668-0.022643 0.013094-0.014198 0.023832-0.03007 0.023863-0.035271 0.0000375-0.0052 0.00383-0.015214 0.00844-0.022251 0.00486-0.00742 0.00695-0.017305 0.00498-0.023535-0.00294-0.00927-0.0004762-0.011207 0.018099-0.014178 0.015942-0.00255 0.021507-0.00592 0.021507-0.013011 0-0.018294-0.010782-0.037703-0.035774-0.0644-0.054353-0.058061-0.059565-0.06423-0.059565-0.070501 0-0.010426-0.029656-0.019946-0.050155-0.0161-0.011031 0.00207-0.023363 0.0009062-0.030419-0.00287-0.00653-0.00349-0.019551-0.00808-0.028943-0.010202-0.021612-0.00487-0.031606 0.0051-0.036636 0.036549-0.00516 0.032278-0.019825 0.036888-0.040919 0.012864-0.017334-0.019742-0.04467-0.033312-0.067104-0.033312-0.01102 0-0.019189 0.00597-0.033781 0.024704-0.010586 0.013587-0.019247 0.027795-0.019247 0.031573 0 0.012587-0.022645 0.028468-0.040592 0.028468-0.016498 0-0.017138-0.00071-0.012243-0.013586 0.013782-0.036249 0.0004987-0.10567-0.022713-0.11869-0.013331-0.00748-0.017152-0.00705-0.052832 0.00596-0.021154 0.00771-0.042317 0.015589-0.047028 0.017503-0.00675 0.00274-0.00989-0.00177-0.014812-0.021328-0.00344-0.013645-0.012094-0.032475-0.019242-0.041845-0.00715-0.00937-0.012995-0.023367-0.012995-0.031103 0-0.027841-0.033828-0.045892-0.048693-0.025983-0.00381 0.0051-0.014072 0.00983-0.022811 0.010506-0.00874 0.00068-0.02718 0.00271-0.040979 0.0045-0.023363 0.00304-0.025442 0.00234-0.030216-0.010221-0.00365-0.00961-0.011668-0.015387-0.027877-0.020099-0.012512-0.00364-0.0299-0.011897-0.03864-0.018353-0.012257-0.00906-0.025339-0.012274-0.05722-0.014079-0.022732-0.00129-0.044064-0.00507-0.047405-0.00841-0.00334-0.00334-0.012829-0.00607-0.021084-0.00607-0.014597 0-0.046432-0.025546-0.046432-0.037259 0-0.00281-0.00559-0.00511-0.012421-0.00511-0.013389 0-0.029843 0.01469-0.030129 0.0269-0.0002162 0.00925-0.018099 0.031363-0.025366 0.031363-0.00645 0-0.013816-0.039693-0.00885-0.047727 0.00195-0.00316 0.00066-0.017786-0.00287-0.032507-0.00561-0.023365-0.00953-0.028687-0.030923-0.041901-0.013477-0.00833-0.026268-0.017023-0.028425-0.019329-0.016993-0.018167-0.029228-0.039901-0.034848-0.061903-0.00627-0.02456-0.00591-0.026953 0.0068-0.045306 0.015346-0.022144 0.016371-0.028308 0.00612-0.036815-0.00402-0.00334-0.00873-0.013161-0.010461-0.021835-0.00252-0.012601-0.0059-0.015771-0.016804-0.015771-0.010404 0-0.014967-0.00378-0.019189-0.01589-0.00305-0.00874-0.00701-0.01589-0.00882-0.01589-0.00887 0-0.048653 0.017913-0.048653 0.021906 0 0.00252-0.00238 0.00458-0.0053 0.00458-0.00291 0-0.0053-0.013109-0.0053-0.029131 0-0.031728-0.00214-0.033372-0.030605-0.02345-0.01059 0.00369-0.018182 0.011091-0.021683 0.021133-0.00676 0.019386-0.023608 0.016406-0.018662-0.0033 0.002628-0.01047 0.00072-0.012974-0.011955-0.015686-0.008295-0.00177-0.021465-0.00668-0.029267-0.010898-0.013103-0.00709-0.014443-0.00686-0.017571 0.003-0.005157 0.016247-0.012391 0.012767-0.016253-0.00782l-0.003468-0.018486-0.01531 0.010902c-0.008421 0.006-0.01531 0.014315-0.01531 0.018486 0 0.00417-0.004718 0.00758-0.010486 0.00758-0.006941 0-0.014226 0.00733-0.021551 0.021691-0.010526 0.020633-0.010618 0.022185-0.001878 0.031842 0.005484 0.00606 0.014706 0.00959 0.022875 0.00877 0.013102-0.00133 0.01373-0.0001588 0.014661 0.027272 0.000865 0.025494-0.0007425 0.030261-0.014566 0.043174-0.016878 0.015766-0.019499 0.026867-0.0085 0.035997 0.003976 0.0033 0.007305 0.017515 0.00765 0.032671 0.0005575 0.024493-0.00063125 0.027308-0.01366 0.032326-0.011094 0.00427-0.021345 0.00317-0.046051-0.00497-0.040096-0.013211-0.069178-0.01471-0.073372-0.00378-0.003607 0.0094-0.014727 0.010543-0.022916 0.00235-0.005997-0.006 0.013387-0.038772 0.04831-0.081678 0.009484-0.011652 0.020334-0.03072 0.024109-0.042373 0.003776-0.011652 0.008307-0.022378 0.01007-0.023835 0.007552-0.00624 0.022346-0.045297 0.025288-0.066758 0.001755-0.012806 0.004992-0.023284 0.007194-0.023284 0.002201 0 0.005642-0.00653 0.007645-0.014513 0.002003-0.00798 0.006083-0.016021 0.009066-0.017864 0.003607-0.00223 0.00323-0.00745-0.001125-0.015588-0.00571-0.010669-0.005037-0.01346 0.005255-0.021794 0.008838-0.00716 0.012854-0.018025 0.015983-0.043256 0.002298-0.018534 0.006879-0.038744 0.010179-0.04491 0.0033-0.00617 0.006244-0.023804 0.006543-0.039196 0.00029875-0.015392 0.002713-0.032133 0.005364-0.037203 0.002652-0.00507 0.005679-0.020101 0.006726-0.033403 0.001048-0.013302 0.00336-0.025639 0.005138-0.027417 0.001778-0.00178 0.003232-0.00838 0.003232-0.014668 0-0.00629 0.005855-0.016936 0.013011-0.023659 0.011123-0.01045 0.012762-0.016156 0.011295-0.039324-0.002396-0.03783-0.00782-0.056209-0.022353-0.075741-0.0069-0.00927-0.012546-0.018544-0.012546-0.020603 0-0.00206-0.003579-0.00639-0.007953-0.00962-0.012848-0.0095-0.028626-0.058405-0.02242-0.069494 0.003832-0.00685 0.002792-0.013616-0.003809-0.024791-0.006378-0.010798-0.007462-0.017321-0.003642-0.021924 0.003421-0.00412 0.003616-0.00943 0.00052625-0.01432-0.006328-0.010005-0.006518-0.040678-0.000275-0.044536 0.010363-0.0064-0.01591-0.064069-0.033707-0.073981-0.005703-0.00318-0.013393-0.00853-0.017089-0.011893-0.003696-0.00336-0.023233-0.00907-0.043416-0.012676-0.030014-0.00536-0.037732-0.00883-0.042384-0.019042-0.003128-0.00687-0.009722-0.012483-0.014653-0.012483s-0.013564-0.00417-0.019184-0.00927-0.022315-0.011653-0.037099-0.014566c-0.023368-0.0046-0.027502-0.00737-0.031635-0.021186-0.002615-0.00874-0.007308-0.021145-0.01043-0.027567-0.006497-0.013368 0.001797-0.029271 0.029276-0.056132l0.016199-0.015835-0.006384-0.050868c-0.006603-0.052616-0.019576-0.09589-0.028745-0.09589-0.002893 0-0.015082-0.00885-0.027088-0.019667-0.034714-0.031277-0.044689-0.052143-0.050775-0.10622-0.004875-0.043317-0.009443-0.051191-0.034489-0.059457-0.011198-0.0037-0.019796-0.011178-0.023713-0.020635-0.005287-0.012764-0.004438-0.017512 0.006074-0.033974 0.006721-0.010525 0.014753-0.019237 0.017849-0.01936 0.007171-0.000285 0.034095-0.02818 0.034095-0.035324 0-0.00296 0.009284-0.013178 0.020632-0.022698 0.014766-0.012389 0.022498-0.024326 0.027198-0.041991 0.003611-0.013575 0.009875-0.030044 0.013918-0.036599l0.007352-0.011917h4.4835c2.6938 0 4.4835 0.00193 4.4835 0.00483 0 0.00265-0.00759 0.011212-0.016865 0.019017-0.014021 0.011798-0.015869 0.015787-0.010955 0.023654 0.00899 0.014394 0.01417 0.047843 0.00741 0.047843-0.011048 0-0.018221 0.021505-0.011843 0.035504 0.00485 0.010648 0.00407 0.015572-0.00438 0.02743-0.011209 0.015742-0.00905 0.023826 0.00777 0.029065 0.0128 0.00399 0.025371 0.034758 0.02002 0.049003-0.00632 0.016827-0.05039 0.055379-0.059867 0.052371-0.00985-0.00312-0.039427 0.02533-0.044746 0.043042-0.00381 0.012697 0.00661 0.040201 0.013595 0.035882 0.00249-0.00154 0.00473 0.00271 0.00498 0.00944 0.0002538 0.00673 0.00118 0.024147 0.00206 0.038713 0.0008788 0.014566 0.000075 0.027675-0.00178 0.029131-0.00699 0.00548-0.01557 0.0371-0.010855 0.040014 0.00266 0.00164 0.00483 0.019023 0.00483 0.038628 0 0.025716 0.00305 0.041488 0.010939 0.056626 0.00646 0.012386 0.011548 0.033558 0.012424 0.05168 0.00166 0.034324 0.00661 0.042131 0.02672 0.042131 0.015705 0 0.029403 0.015926 0.025741 0.029928-0.00387 0.014782 0.023861 0.044317 0.038905 0.041441 0.016852-0.00322 0.016491 0.011649-0.000675 0.027776l-0.013064 0.012273 0.010777 0.015134c0.00593 0.00832 0.014188 0.015134 0.01836 0.015134 0.00417 0 0.00758 0.0038 0.00758 0.00845s0.00403 0.015277 0.00896 0.02362c0.00842 0.014247 0.00842 0.01577 0 0.025069-0.00493 0.00545-0.00896 0.017711-0.00896 0.027257 0 0.010786-0.00501 0.023314-0.013241 0.033093-0.00728 0.00866-0.013242 0.021394-0.013242 0.028309 0 0.00691-0.00386 0.014731-0.00857 0.01737-0.0065 0.00364-0.00787 0.00978-0.00565 0.025422 0.00683 0.0482 0.011701 0.062549 0.022222 0.065486 0.020121 0.00562 0.060205 0.034164 0.0631 0.044939 0.0016 0.00596 0.00294 0.017096 0.00298 0.024751 0.00005 0.00765 0.00365 0.016884 0.00802 0.020511 0.00437 0.00363 0.00794 0.010906 0.00794 0.016178 0 0.00816 0.024914 0.031492 0.033627 0.031492 0.00526 0 0.038595 0.034251 0.047682 0.048994 0.00494 0.00801 0.01332 0.014566 0.018628 0.014566 0.00934 0 0.027182 0.015299 0.027182 0.023306 0 0.00216-0.00358 0.00751-0.00794 0.011879-0.00437 0.00437-0.00788 0.013138-0.0078 0.019484 0.000265 0.020358 0.023664 0.058767 0.043874 0.072013 0.017473 0.011452 0.019536 0.015197 0.019536 0.03544 0 0.012449 0.00187 0.023788 0.00415 0.025198s0.00366 0.01436 0.00305 0.028779c-0.0009625 0.023134 0.000425 0.026903 0.011755 0.032069 0.017264 0.00787 0.033966 0.036463 0.03399 0.058198 0 0.010069 0.00516 0.024583 0.011938 0.033664 0.026796 0.035893 0.079833 0.088277 0.092629 0.091488 0.0075 0.00189 0.02218 0.010441 0.03257 0.019008 0.01039 0.00857 0.02179 0.015576 0.02532 0.015576 0.01389 0 0.01163 0.010382-0.0048 0.022106-0.01566 0.01117-0.02293 0.012322-0.077733 0.012322h-0.060458l-0.01518 0.041739-0.01518 0.041739 0.00992 0.019172c0.00778 0.015018 0.013834 0.019746 0.027969 0.021821 0.015517 0.00228 0.018235 0.00487 0.019409 0.018538 0.00506 0.058862 0.00583 0.060666 0.0274 0.064115 0.019896 0.00318 0.020076 0.00342 0.01306 0.01749-0.00629 0.012613-0.00578 0.016991 0.00442 0.037833 0.00634 0.012963 0.014344 0.025953 0.017777 0.028867 0.0034 0.00291 0.0075 0.01577 0.0091 0.02857 0.0016 0.012801 0.006 0.02518 0.0097 0.02751 0.0056 0.00346 0.0056 0.00987 0 0.034989-0.0037 0.016914-0.01024 0.051012-0.01445 0.075774-0.018643 0.10961-0.025743 0.14185-0.036157 0.1642-0.00983 0.021088-0.015994 0.026272-0.053484 0.044978-0.037883 0.018903-0.04597 0.021005-0.076324 0.019841-0.018674-0.0007162-0.047627-0.0035-0.06434-0.0062-0.072455-0.011668-0.14778 0.040571-0.16062 0.11139-0.00289 0.015946-0.00901 0.022862-0.037476 0.042373-0.032048 0.021963-0.055842 0.051654-0.055842 0.069679 0 0.00431-0.01013 0.014499-0.022511 0.022633-0.054313 0.035684-0.13017 0.10431-0.15483 0.14008-0.024164 0.035047-0.10333 0.11589-0.12466 0.12731-0.00554 0.00296-0.014707 0.015881-0.020381 0.028709-0.00716 0.016193-0.016864 0.02709-0.031735 0.035649-0.020331 0.011701-0.032535 0.028149-0.032535 0.043848 0 0.00392-0.010207 0.018702-0.022683 0.032855-0.012475 0.014152-0.041891 0.05195-0.065368 0.083994s-0.059333 0.080906-0.079681 0.10858c-0.020347 0.027675-0.054068 0.068194-0.074936 0.090042-0.020868 0.021849-0.041184 0.0433-0.045147 0.047669-0.00396 0.00437-0.012019 0.011827-0.017903 0.016571-0.00742 0.00598-0.011882 0.018165-0.014555 0.039725-0.00415 0.033499-0.00113 0.029274-0.073503 0.1026-0.027109 0.027466-0.036798 0.041979-0.047915 0.071768-0.00921 0.024672-0.02876 0.057378-0.057633 0.096404-0.033169 0.044832-0.04528 0.065864-0.05026 0.087286-0.00905 0.038913-0.00865 0.042573 0.0091 0.083013 0.012121 0.027617 0.015502 0.042795 0.014943 0.067095-0.0005662 0.024602 0.00235 0.037389 0.013467 0.059035 0.0078 0.015197 0.014188 0.036068 0.014188 0.04638 0 0.030861 0.015564 0.12566 0.024509 0.14929 0.00763 0.020159 0.00759 0.025311-0.0004713 0.060769-0.00485 0.021308-0.010961 0.041332-0.013587 0.044497-0.00263 0.00317-0.00288 0.012742-0.0005412 0.021329 0.0043 0.015812 0.00363 0.01854-0.0118 0.048171-0.01161 0.022292-0.010985 0.04023 0.00168 0.048138 0.00864 0.0054 0.011274 0.00495 0.015729-0.0027 0.0046-0.00789 0.00537-0.00725 0.00551 0.00454 0.0001912 0.016273 0.017693 0.026251 0.038925 0.022192 0.011381-0.00218 0.014202-0.0007125 0.014202 0.00737 0 0.012327 0.043988 0.060009 0.055361 0.060009 0.00451 0 0.0082 0.00319 0.0082 0.00709s0.00611 0.00988 0.013579 0.013282c0.012659 0.00577 0.012983 0.00678 0.00478 0.014991-0.00723 0.00723-0.00816 0.01485-0.00518 0.042621 0.00199 0.0186 0.00576 0.041276 0.00838 0.050392 0.00261 0.00912 0.0042 0.017081 0.00352 0.0177-0.0006788 0.0006187-0.012317-0.00525-0.025864-0.013053h-0.0000016z" fill-rule="evenodd" stroke="#dc143c" stroke-linecap="round" stroke-width=".025" fill="#dc143c"/>
 <path id="path3767" stroke-linejoin="round" d="m0.60882 4.6505c0-0.00341-0.00388-0.010492-0.008623-0.015732-0.007973-0.00881-0.007936-0.010977 0.00048625-0.028726 0.00501-0.010558 0.007906-0.023801 0.006434-0.029428-0.001619-0.00619 0.002491-0.016372 0.010407-0.025778 0.007195-0.00855 0.014262-0.024577 0.015704-0.035613s0.005143-0.028638 0.008225-0.039117c0.004888-0.01662 0.004008-0.021492-0.006895-0.038173-0.007225-0.011054-0.021436-0.023009-0.033684-0.028335-0.011652-0.00507-0.022214-0.00997-0.02347-0.010897-0.001256-0.0009262-0.003891-0.014163-0.005856-0.029415-0.00311-0.02414-0.001957-0.029853 0.008904-0.04412 0.014591-0.019166 0.01543-0.028745 0.004387-0.050099-0.007545-0.014591-0.007324-0.016681 0.003279-0.031023 0.014174-0.019172 0.01451-0.050472 0.000805-0.075004-0.008602-0.015397-0.01418-0.018719-0.040187-0.023929-0.016609-0.00333-0.034567-0.010003-0.039906-0.014835-0.005339-0.00483-0.013275-0.00742-0.017635-0.00574-0.011132 0.00427-0.024934-0.018646-0.021632-0.035918 0.001678-0.00878-0.001117-0.019486-0.007525-0.028819-0.012571-0.01831-0.022711-0.052476-0.022711-0.076521 0-0.00994-0.003878-0.023606-0.008617-0.030372-0.007097-0.010132-0.007588-0.015715-0.002782-0.031634 0.003209-0.010632 0.006516-0.024098 0.007347-0.029924 0.00087125-0.00611 0.006256-0.011273 0.012716-0.012199 0.016627-0.00238 0.042471-0.037886 0.057281-0.078689l0.013071-0.03601-0.01158-0.012326c-0.015647-0.016656-0.015502-0.048235 0.00031875-0.069635 0.006545-0.00885 0.014205-0.022158 0.017023-0.02957 0.004468-0.011752 0.00344-0.014116-0.008036-0.018479-0.008027-0.00305-0.01636-0.013003-0.021366-0.025514-0.008691-0.02172-0.021985-0.033549-0.060672-0.053984-0.043872-0.023174-0.080373-0.04991-0.087832-0.064334-0.004065-0.00786-0.012184-0.015814-0.018042-0.017673-0.005858-0.00186-0.010651-0.0055-0.010651-0.00809 0-0.00696-0.020186-0.035473-0.053013-0.074873-0.02236-0.0269-0.03731-0.039-0.06453-0.0524-0.02337-0.0115-0.04758-0.0297-0.07113-0.0534-0.03502-0.0353-0.036444-0.0361-0.074343-0.0422-0.048719-0.0079-0.052046-0.0149-0.025423-0.0536 0.016287-0.0237 0.018804-0.031 0.01602-0.0466-0.01664-0.0934-0.017487-0.1032-0.009378-0.1086 0.0043834-0.00291 0.012458-0.010261 0.017943-0.016329 0.0054854-0.00607 0.024787-0.017985 0.042892-0.026483 0.018105-0.0085 0.043505-0.024985 0.056445-0.036637 0.091269-0.082191 0.089881-0.08006 0.11111-0.17061l0.01144-0.048789-0.011199-0.021952c-0.009952-0.019507-0.010524-0.024763-0.005144-0.04719 0.004292-0.01789 0.00967-0.026885 0.018472-0.030896 0.00683-0.00311 0.014159-0.011166 0.016288-0.017898 0.002128-0.00673 0.009486-0.019616 0.016349-0.02863 0.006864-0.00901 0.012479-0.018361 0.012479-0.020769 0-0.00241 0.00389-0.00868 0.008644-0.01393 0.007355-0.00813 0.007654-0.011939 0.002006-0.025576-0.003948-0.00953-0.010542-0.016025-0.016276-0.016025-0.013376 0-0.015512-0.0052-0.017839-0.043388-0.002416-0.039657-0.007922-0.066973-0.014295-0.070912-0.002537-0.00157-0.004613-0.012046-0.004613-0.023285s-0.00502-0.031954-0.011155-0.046033-0.012404-0.041091-0.013931-0.060026-0.004741-0.036925-0.007142-0.039976c-0.002401-0.00305-0.006576-0.019642-0.009277-0.036867-0.002701-0.017226-0.00762-0.032222-0.01093-0.033325-0.0123-0.0041-0.021393-0.017855-0.024448-0.036983-0.00173-0.010831-0.005453-0.023918-0.008274-0.029083-0.003138-0.00575-0.003256-0.012942-0.00030375-0.018538 0.002654-0.00503 0.005152-0.02985 0.005553-0.055154 0.0007-0.044196 0.0000875-0.04673-0.015417-0.064395-0.014285-0.01627-0.016394-0.022965-0.018308-0.058119-0.002067-0.037968-0.001618-0.039867 0.010127-0.042815 0.013754-0.00345 0.022826-0.027711 0.013755-0.036782-0.003074-0.00307-0.00559-0.011156-0.00559-0.017958 0-0.010727 0.001406-0.011616 0.010593-0.0067 0.005826 0.00312 0.010593 0.00983 0.010593 0.014918 0 0.00975 0.053416 0.064919 0.071504 0.073858 0.005826 0.00288 0.024869 0.00697 0.042318 0.00909 0.054228 0.00658 0.088021 0.029392 0.1013 0.068372 0.004578 0.013437 0.010485 0.025766 0.013125 0.027398 0.002641 0.00163 0.004801 0.00893 0.004801 0.016208 0 0.00748 0.002305 0.011817 0.005297 0.00997 0.002913-0.0018 0.005297 0.00163 0.005297 0.00763 0 0.00864 0.003376 0.010906 0.016274 0.010906h0.016274l-0.001398-0.03019c-0.001278-0.027594-0.00028625-0.030668 0.011533-0.035752 0.009912-0.00426 0.013297-0.010217 0.014495-0.025499 0.001109-0.014142-0.00081625-0.02085-0.006621-0.023077-0.004501-0.00173-0.008184-0.00598-0.008184-0.00945 0-0.00414-0.006624-0.00554-0.019261-0.00407-0.011744 0.00137-0.01801 0.000225-0.016056-0.00294 0.001763-0.00285-0.002443-0.00776-0.009345-0.010904-0.016456-0.0075-0.02176-0.038173-0.013661-0.079013 0.009419-0.047499 0.010273-0.049233 0.024252-0.049233 0.007087 0 0.012885-0.00238 0.012885-0.0053 0-0.00291 0.004683-0.0053 0.010407-0.0053s0.012784-0.00444 0.015689-0.00987c0.004821-0.00901 0.003472-0.055834-0.002407-0.083538-0.00132-0.00622 0.001153-0.014259 0.005493-0.017862 0.004341-0.0036 0.007894-0.010943 0.007894-0.016311 0-0.00537 0.003314-0.019972 0.007364-0.032455s0.008837-0.029148 0.010637-0.037034c0.003664-0.016052 0.031062-0.044676 0.050069-0.05231 0.007114-0.00286 0.0113-0.00801 0.009762-0.012023-0.001525-0.00397 0.004003-0.010977 0.012745-0.01614 0.012097-0.00715 0.015912-0.00762 0.017626-0.00218 0.001202 0.00382 0.004346 0.014047 0.006984 0.022727l0.004797 0.015782 0.010188-0.015589c0.005603-0.00857 0.010376-0.020442 0.010606-0.026375 0.00023-0.00593 0.00082625-0.021139 0.001324-0.033793 0.00071375-0.018121 0.003155-0.023595 0.011499-0.025777 0.013183-0.00345 0.013166-0.00378-0.001159-0.023155-0.013555-0.018335-0.009083-0.031742 0.012253-0.036733 0.010528-0.00246 0.0132-0.00706 0.015388-0.0265l0.002648-0.023519 0.042373-0.010949c0.058882-0.015215 0.1074-0.031946 0.17077-0.058888 0.029833-0.012684 0.059227-0.023062 0.06532-0.023062s0.02737-0.00715 0.047282-0.01589 0.039379-0.015971 0.043261-0.01607c0.00388-0.0001 0.016591-0.00478 0.028244-0.010414 0.011653-0.00563 0.024098-0.010315 0.027656-0.010413 0.00356-0.0001 0.01917-0.0058 0.034692-0.012661 0.015522-0.00686 0.039708-0.014204 0.053747-0.016309 0.014039-0.00211 0.042522-0.00835 0.063295-0.013877 0.020774-0.00553 0.052578-0.010106 0.070675-0.010174 0.034571-0.0001313 0.085529-0.015601 0.097028-0.029456 0.00354-0.00426 0.014752-0.00774 0.024926-0.00774 0.032365 0 0.16499-0.037874 0.21855-0.062412 0.057009-0.026118 0.094001-0.033985 0.19281-0.041005 0.062551-0.004444 0.16039-0.041348 0.2092-0.078907 0.024257-0.018666 0.035979-0.024244 0.050943-0.024244 0.014982 0 0.020071-0.002428 0.022207-0.010593 0.00152-0.005826 0.00551-0.010593 0.00885-0.010593s0.014976-0.004767 0.025846-0.010593c0.010871-0.005826 0.023188-0.010593 0.027372-0.010593 0.011589 0 0.015384-0.019793 0.00851-0.044358-0.00584-0.02087-0.00518-0.023772 0.012201-0.053736 0.010108-0.017421 0.025488-0.040016 0.034177-0.050212 0.00869-0.010196 0.024227-0.032839 0.034527-0.050318 0.021502-0.036489 0.056169-0.074262 0.073082-0.07963 0.00637-0.002022 0.01937-0.011462 0.028885-0.020977 0.010774-0.010774 0.035955-0.024717 0.06675-0.03696 0.044822-0.01782 0.056143-0.020054 0.12095-0.023867 0.068607-0.004036 0.12484-0.016898 0.13995-0.032013 0.00285-0.002847 0.013659-0.005176 0.024028-0.005176 0.030766 0 0.11179-0.048364 0.15971-0.095339 0.028326-0.027763 0.049091-0.04315 0.068959-0.051101 0.015636-0.006257 0.043921-0.021209 0.062856-0.033226 0.083-0.05282 0.1812-0.08503 0.2592-0.08514 0.045-0.00006 0.1811-0.02692 0.2968-0.058568 0.2699-0.073839 0.2482-0.069926 0.3971-0.071627 0.068351-0.00078113 0.14029-0.0030284 0.15986-0.0049938 0.048842-0.004905 0.065882 0.0000525 0.09339 0.027172 0.012956 0.012772 0.028652 0.023258 0.034881 0.023301 0.00623 0.0000425 0.016357 0.0030223 0.022507 0.0066208s0.023667 0.013257 0.038927 0.021464c0.033398 0.017962 0.032657 0.023892-0.00112 0.0089511-0.027443-0.012139-0.041044-0.0096036-0.041044 0.007653 0 0.00652-0.005 0.016381-0.011117 0.021915-0.00886 0.008015-0.010556 0.014246-0.00836 0.030647 0.00225 0.016782 0.00906 0.026576 0.03685 0.052995l0.034089 0.032409 0.00325 0.043968c0.00179 0.024183 0.00481 0.046492 0.00672 0.049577 0.00195 0.00316 0.011267 0.004343 0.021331 0.00271 0.0177-0.002872 0.017865-0.002711 0.017865 0.017514 0 0.012969 0.00648 0.032646 0.017777 0.053957 0.02741 0.051721 0.027805 0.054926 0.00749 0.060753-0.022211 0.00637-0.022198 0.018883 0.000025 0.026067 0.00954 0.003084 0.016164 0.006788 0.014721 0.008231-0.00144 0.001444-0.00021 0.015605 0.00274 0.03147s0.00588 0.041954 0.00651 0.057976c0.00163 0.041493 0.016857 0.067504 0.051838 0.08856 0.015778 0.009497 0.034696 0.016765 0.042082 0.016166 0.00959-0.000778 0.019919 0.005412 0.036216 0.02171 0.023192 0.023192 0.049954 0.037759 0.069369 0.037759 0.007 0 0.010763 0.003479 0.010763 0.009945 0 0.01645 0.013456 0.02414 0.02639 0.015081 0.00973-0.006817 0.013314-0.006506 0.032083 0.002779 0.013755 0.006806 0.03681 0.011431 0.066073 0.013257 0.02472 0.001542 0.044946 0.004777 0.044946 0.007188 0 0.005239 0.017182-0.00044487 0.021731-0.007189 0.00185-0.002741 0.017149-0.002203 0.036342 0.001278 0.018233 0.003306 0.037056 0.004495 0.041829 0.002643 0.00477-0.001853 0.039664-0.005591 0.077535-0.008308s0.081965-0.006401 0.097987-0.008186c0.023991-0.002674 0.027963-0.002015 0.022511 0.003731-0.00991 0.010443-0.00798 0.026681 0.00352 0.02969 0.01261 0.003298 0.018427 0.022809 0.017074 0.057266-0.00145 0.036983 0.00385 0.043496 0.026306 0.032295 0.0128-0.006385 0.021303-0.007466 0.031045-0.003945 0.00738 0.002667 0.024143 0.007924 0.037252 0.011681 0.013109 0.003758 0.025588 0.00829 0.02773 0.010071 0.00214 0.001782-0.0007825 0.015552-0.0065 0.0306-0.00938 0.024689-0.0096 0.028161-0.0022 0.035554 0.013893 0.013894 0.027622 0.001138 0.037669-0.035001 0.00594-0.021355 0.014406-0.037397 0.025124-0.047596 0.048236-0.045898 0.086655-0.07868 0.092209-0.07868 0.00346 0 0.016165-0.006539 0.028242-0.01453 0.017601-0.011648 0.028349-0.014613 0.054176-0.014946 0.017721-0.00022887 0.03937-0.003355 0.04811-0.006948 0.018679-0.007678 0.076801-0.063353 0.076801-0.073567 0-0.003872 0.00612-0.01271 0.013596-0.01964 0.00748-0.00693 0.015405-0.01933 0.017616-0.027554 0.00393-0.014615 0.00485-0.014949 0.040694-0.014704 0.088596 0.00060437 0.4182 0.039846 0.57958 0.069002 0.18308 0.033078 0.34248 0.050915 0.59057 0.066088 0.04661 0.00285 0.11692 0.008751 0.15625 0.013112 0.039327 0.004361 0.13665 0.013655 0.21626 0.020653 0.14004 0.012308 0.14902 0.012487 0.27542 0.005483 0.071866-0.003982 0.21885-0.009811 0.32664-0.012953s0.23769-0.009073 0.28867-0.013179c0.05098-0.004107 0.14513-0.00892 0.20922-0.010696 0.1129-0.00311 0.3157-0.01552 0.3509-0.02146 0.0266-0.00449 0.0542-0.03139 0.0542-0.05288 0-0.011661-0.00278-0.018179-0.00824-0.019314-0.011964-0.002486 0.034838-0.031581 0.047783-0.029705 0.00573 0.00083 0.015977 0.009851 0.02278 0.020047 0.0068 0.010196 0.017611 0.020626 0.024017 0.023178 0.00641 0.002552 0.018967 0.008227 0.027914 0.012611 0.012024 0.005893 0.018965 0.006527 0.02662 0.00243 0.016756-0.008968 0.028619 0.001376 0.028619 0.024955 0 0.023627 0.0064 0.030312 0.034843 0.036395 0.021956 0.004696 0.021854 0.004417 0.014896 0.040855-0.00272 0.014249-0.00068 0.017503 0.019104 0.030456 0.026421 0.017298 0.036155 0.017897 0.063573 0.003909 0.024611-0.012556 0.03178-0.01324 0.03178-0.003033 0 0.009596 0.024998 0.029516 0.037041 0.029516 0.00518 0 0.017441 0.012519 0.028362 0.028968 0.017509 0.026371 0.021968 0.029704 0.049744 0.037186 0.092578 0.024938 0.096763 0.027642 0.13539 0.087448 0.018109 0.028037 0.027308 0.036787 0.049555 0.047137 0.015541 0.00723 0.029771 0.018094 0.033009 0.025199 0.00899 0.019721 0.016856 0.07841 0.018037 0.1345 0.0008712 0.041322-0.000635 0.053469-0.00761 0.061375-0.017809 0.020195-0.016982 0.048649 0.00277 0.09524 0.010205 0.024075 0.020924 0.061385 0.024346 0.084746 0.00336 0.022955 0.010757 0.054428 0.016431 0.069942 0.00645 0.017624 0.011555 0.049417 0.013617 0.084746 0.0036 0.061716 0.00623 0.069961 0.029864 0.093616l0.015874 0.01589 0.00108 0.11611 0.00108 0.11611 0.013659 0.011005c0.011651 0.00939 0.015553 0.020741 0.026538 0.077212 0.00765 0.039336 0.01939 0.080181 0.028923 0.10064 0.00882 0.018935 0.033255 0.086864 0.054291 0.15095 0.038443 0.11713 0.079267 0.2202 0.09368 0.23654 0.00426 0.00483 0.014449 0.011559 0.022635 0.01495 0.013266 0.00549 0.015148 0.00936 0.017321 0.035565 0.00222 0.026737 0.00467 0.031541 0.027107 0.053041 0.029034 0.027824 0.031535 0.043915 0.011426 0.073545-0.00728 0.010732-0.013241 0.026992-0.013241 0.036133 0 0.00914-0.00361 0.02177-0.00801 0.028064-0.00722 0.010302-0.00708 0.013458 0.00132 0.031634 0.00514 0.011105 0.013551 0.023333 0.018698 0.027173 0.00515 0.00384 0.00808 0.00906 0.00651 0.011592-0.00157 0.00253 0.000175 0.00654 0.00388 0.00891 0.012902 0.00824 0.02507 0.044216 0.033087 0.097832 0.00722 0.048256 0.00722 0.055284 0 0.066244-0.00908 0.013866-0.01667 0.12341-0.021801 0.31489l-0.0031 0.1146-0.1199 0.0331c-0.2304 0.0637-0.2564 0.072-0.3035 0.0975-0.0725 0.0392-0.0872 0.0545-0.1811 0.1886-0.025135 0.035883-0.036052 0.05846-0.053782 0.11123-0.012235 0.036414-0.031713 0.0817-0.043284 0.10064-0.02038 0.033352-0.049391 0.09246-0.049391 0.10063 0 0.00221 0.00739 0.00707 0.016415 0.010813l0.016415 0.0068-0.00343 0.032244c-0.00253 0.02379-0.00148 0.034906 0.00402 0.042397 0.00838 0.011411 0.048947 0.023688 0.079446 0.024041 0.011096 0.0001287 0.0189 0.0023 0.017343 0.00482-0.00156 0.00252 0.010548 0.00615 0.026902 0.00808 0.016353 0.00192 0.035959 0.00682 0.043568 0.010892 0.00761 0.00407 0.018171 0.00876 0.02347 0.010435 0.00639 0.00202 0.00862 0.00625 0.0066 0.012587-0.0023 0.00725 0.00122 0.011084 0.014576 0.015916 0.02361 0.00854 0.030211 0.00805 0.039115-0.0029 0.00548-0.00674 0.00829-0.00747 0.010294-0.00265 0.00152 0.00364 0.00733 0.00662 0.012908 0.00662 0.00762 0 0.010152 0.00375 0.010152 0.015021 0 0.010873 0.00597 0.020379 0.021618 0.034428 0.01189 0.010674 0.024999 0.019407 0.029131 0.019407 0.00413 0 0.00751 0.00329 0.00751 0.0073 0 0.00732 0.016844 0.01565 0.043259 0.02139 0.00834 0.00181 0.018685 0.010443 0.025252 0.021069 0.00612 0.0099 0.016775 0.021702 0.023683 0.026228 0.00961 0.0063 0.013939 0.016155 0.018445 0.042031 0.00324 0.018591 0.00589 0.040627 0.00589 0.048968 0 0.00926 0.00557 0.02098 0.014308 0.0301l0.014308 0.014934-0.011659 0.00817c-0.00641 0.00449-0.011659 0.012798-0.011659 0.018459 0 0.00566-0.00227 0.010293-0.00506 0.010293-0.00669 0-0.034844 0.028018-0.033259 0.033104 0.0006675 0.00218-2.0128 0.00397-4.4744 0.00397-3.4165 0-4.4756-0.00147-4.4756-0.0062z" fill-rule="evenodd" stroke="#dc143c" stroke-linecap="round" stroke-width=".025" fill="#fff"/>
</svg>
